<mxfile host="app.diagrams.net" agent="Mozilla/5.0 (Windows NT 10.0; Win64; x64) AppleWebKit/537.36 (KHTML, like Gecko) Chrome/129.0.0.0 Safari/537.36 Edg/129.0.0.0" version="24.7.17">
  <diagram name="Page-1" id="c4acf3e9-155e-7222-9cf6-157b1a14988f">
    <mxGraphModel dx="1068" dy="511" grid="1" gridSize="10" guides="1" tooltips="1" connect="1" arrows="1" fold="1" page="1" pageScale="1" pageWidth="850" pageHeight="1100" background="none" math="0" shadow="0">
      <root>
        <mxCell id="0" />
        <mxCell id="1" parent="0" />
        <mxCell id="WmNGhEGXS-RCsKmBJ5Ct-5" value="Customer" style="swimlane;fontStyle=1;align=center;verticalAlign=top;childLayout=stackLayout;horizontal=1;startSize=26;horizontalStack=0;resizeParent=1;resizeParentMax=0;resizeLast=0;collapsible=1;marginBottom=0;whiteSpace=wrap;html=1;" parent="1" vertex="1">
          <mxGeometry x="20" y="30" width="190" height="190" as="geometry" />
        </mxCell>
        <mxCell id="WmNGhEGXS-RCsKmBJ5Ct-6" value="- name                                     : string&lt;div class=&quot;custom-cursor-default-hover&quot;&gt;- contactNumber : int&lt;/div&gt;&lt;div class=&quot;custom-cursor-default-hover&quot;&gt;&lt;br&gt;&lt;/div&gt;" style="text;strokeColor=none;fillColor=none;align=left;verticalAlign=top;spacingLeft=4;spacingRight=4;overflow=hidden;rotatable=0;points=[[0,0.5],[1,0.5]];portConstraint=eastwest;whiteSpace=wrap;html=1;" parent="WmNGhEGXS-RCsKmBJ5Ct-5" vertex="1">
          <mxGeometry y="26" width="190" height="64" as="geometry" />
        </mxCell>
        <mxCell id="WmNGhEGXS-RCsKmBJ5Ct-7" value="" style="line;strokeWidth=1;fillColor=none;align=left;verticalAlign=middle;spacingTop=-1;spacingLeft=3;spacingRight=3;rotatable=0;labelPosition=right;points=[];portConstraint=eastwest;strokeColor=inherit;" parent="WmNGhEGXS-RCsKmBJ5Ct-5" vertex="1">
          <mxGeometry y="90" width="190" height="8" as="geometry" />
        </mxCell>
        <mxCell id="WmNGhEGXS-RCsKmBJ5Ct-8" value="&lt;div class=&quot;custom-cursor-default-hover&quot;&gt;&lt;span style=&quot;background-color: initial;&quot;&gt;+ returningCustomerDiscount(): double&lt;/span&gt;&lt;/div&gt;&lt;div class=&quot;custom-cursor-default-hover&quot;&gt;&lt;span style=&quot;background-color: initial;&quot;&gt;&lt;br&gt;&lt;/span&gt;&lt;/div&gt;" style="text;strokeColor=none;fillColor=none;align=left;verticalAlign=top;spacingLeft=4;spacingRight=4;overflow=hidden;rotatable=0;points=[[0,0.5],[1,0.5]];portConstraint=eastwest;whiteSpace=wrap;html=1;" parent="WmNGhEGXS-RCsKmBJ5Ct-5" vertex="1">
          <mxGeometry y="98" width="190" height="92" as="geometry" />
        </mxCell>
        <mxCell id="WmNGhEGXS-RCsKmBJ5Ct-15" value="Table" style="swimlane;fontStyle=1;align=center;verticalAlign=top;childLayout=stackLayout;horizontal=1;startSize=26;horizontalStack=0;resizeParent=1;resizeParentMax=0;resizeLast=0;collapsible=1;marginBottom=0;whiteSpace=wrap;html=1;" parent="1" vertex="1">
          <mxGeometry x="500" y="292" width="220" height="250" as="geometry" />
        </mxCell>
        <mxCell id="WmNGhEGXS-RCsKmBJ5Ct-16" value="+ tableID : int&lt;div class=&quot;custom-cursor-default-hover&quot;&gt;+ tableCapacity : int&lt;/div&gt;&lt;div class=&quot;custom-cursor-default-hover&quot;&gt;+ tableAvailability : bool&lt;/div&gt;&lt;div class=&quot;custom-cursor-default-hover&quot;&gt;+ orderList: unordered_map&amp;lt;int, order&amp;gt;&lt;/div&gt;&lt;div class=&quot;custom-cursor-default-hover&quot;&gt;+ customerPayment : *payment&lt;/div&gt;" style="text;strokeColor=none;fillColor=none;align=left;verticalAlign=top;spacingLeft=4;spacingRight=4;overflow=hidden;rotatable=0;points=[[0,0.5],[1,0.5]];portConstraint=eastwest;whiteSpace=wrap;html=1;" parent="WmNGhEGXS-RCsKmBJ5Ct-15" vertex="1">
          <mxGeometry y="26" width="220" height="94" as="geometry" />
        </mxCell>
        <mxCell id="WmNGhEGXS-RCsKmBJ5Ct-17" value="" style="line;strokeWidth=1;fillColor=none;align=left;verticalAlign=middle;spacingTop=-1;spacingLeft=3;spacingRight=3;rotatable=0;labelPosition=right;points=[];portConstraint=eastwest;strokeColor=inherit;" parent="WmNGhEGXS-RCsKmBJ5Ct-15" vertex="1">
          <mxGeometry y="120" width="220" height="8" as="geometry" />
        </mxCell>
        <mxCell id="WmNGhEGXS-RCsKmBJ5Ct-18" value="&lt;div class=&quot;custom-cursor-default-hover&quot;&gt;+ placeOrder (): bool&lt;/div&gt;&lt;div class=&quot;custom-cursor-default-hover&quot;&gt;+ payBill() : bool&lt;/div&gt;&lt;div class=&quot;custom-cursor-default-hover&quot;&gt;+ returnTotalAmount(vector menu) : double&amp;nbsp;&lt;/div&gt;&lt;div class=&quot;custom-cursor-default-hover&quot;&gt;+ checkAvailability (int capacity) : bool&lt;/div&gt;&lt;div class=&quot;custom-cursor-default-hover&quot;&gt;+ markAvailable() : void&lt;br&gt;+ reserveTable() : void&lt;br&gt;+ displayOrder() : void&lt;/div&gt;&lt;div class=&quot;custom-cursor-default-hover&quot;&gt;&lt;br&gt;&lt;/div&gt;&lt;div class=&quot;custom-cursor-default-hover&quot;&gt;&lt;br&gt;&lt;/div&gt;" style="text;strokeColor=none;fillColor=none;align=left;verticalAlign=top;spacingLeft=4;spacingRight=4;overflow=hidden;rotatable=0;points=[[0,0.5],[1,0.5]];portConstraint=eastwest;whiteSpace=wrap;html=1;" parent="WmNGhEGXS-RCsKmBJ5Ct-15" vertex="1">
          <mxGeometry y="128" width="220" height="122" as="geometry" />
        </mxCell>
        <mxCell id="WmNGhEGXS-RCsKmBJ5Ct-19" value="Order" style="swimlane;fontStyle=1;align=center;verticalAlign=top;childLayout=stackLayout;horizontal=1;startSize=26;horizontalStack=0;resizeParent=1;resizeParentMax=0;resizeLast=0;collapsible=1;marginBottom=0;whiteSpace=wrap;html=1;" parent="1" vertex="1">
          <mxGeometry x="30" y="595" width="265" height="170" as="geometry" />
        </mxCell>
        <mxCell id="WmNGhEGXS-RCsKmBJ5Ct-20" value="&lt;div&gt;- orderItems : unordered_map&amp;lt;int,int&amp;gt;&lt;/div&gt;" style="text;strokeColor=none;fillColor=none;align=left;verticalAlign=top;spacingLeft=4;spacingRight=4;overflow=hidden;rotatable=0;points=[[0,0.5],[1,0.5]];portConstraint=eastwest;whiteSpace=wrap;html=1;" parent="WmNGhEGXS-RCsKmBJ5Ct-19" vertex="1">
          <mxGeometry y="26" width="265" height="44" as="geometry" />
        </mxCell>
        <mxCell id="WmNGhEGXS-RCsKmBJ5Ct-21" value="" style="line;strokeWidth=1;fillColor=none;align=left;verticalAlign=middle;spacingTop=-1;spacingLeft=3;spacingRight=3;rotatable=0;labelPosition=right;points=[];portConstraint=eastwest;strokeColor=inherit;" parent="WmNGhEGXS-RCsKmBJ5Ct-19" vertex="1">
          <mxGeometry y="70" width="265" height="8" as="geometry" />
        </mxCell>
        <mxCell id="WmNGhEGXS-RCsKmBJ5Ct-22" value="+ addToOrder(int itemID, int quantity) : bool&lt;div&gt;+ removeFromOrder(string) : bool&lt;/div&gt;&lt;div&gt;+ displayOrder(string) : void&lt;/div&gt;&lt;div&gt;+ payBill() : bool&lt;/div&gt;" style="text;strokeColor=none;fillColor=none;align=left;verticalAlign=top;spacingLeft=4;spacingRight=4;overflow=hidden;rotatable=0;points=[[0,0.5],[1,0.5]];portConstraint=eastwest;whiteSpace=wrap;html=1;" parent="WmNGhEGXS-RCsKmBJ5Ct-19" vertex="1">
          <mxGeometry y="78" width="265" height="92" as="geometry" />
        </mxCell>
        <mxCell id="WmNGhEGXS-RCsKmBJ5Ct-23" value="Menu Item" style="swimlane;fontStyle=1;align=center;verticalAlign=top;childLayout=stackLayout;horizontal=1;startSize=26;horizontalStack=0;resizeParent=1;resizeParentMax=0;resizeLast=0;collapsible=1;marginBottom=0;whiteSpace=wrap;html=1;" parent="1" vertex="1">
          <mxGeometry x="30" y="820" width="420" height="180" as="geometry" />
        </mxCell>
        <mxCell id="WmNGhEGXS-RCsKmBJ5Ct-24" value="# itemName : str&lt;div class=&quot;custom-cursor-default-hover&quot;&gt;# itemID : int&lt;/div&gt;&lt;div&gt;# itemPrice : int&lt;/div&gt;" style="text;strokeColor=none;fillColor=none;align=left;verticalAlign=top;spacingLeft=4;spacingRight=4;overflow=hidden;rotatable=0;points=[[0,0.5],[1,0.5]];portConstraint=eastwest;whiteSpace=wrap;html=1;" parent="WmNGhEGXS-RCsKmBJ5Ct-23" vertex="1">
          <mxGeometry y="26" width="420" height="54" as="geometry" />
        </mxCell>
        <mxCell id="WmNGhEGXS-RCsKmBJ5Ct-25" value="" style="line;strokeWidth=1;fillColor=none;align=left;verticalAlign=middle;spacingTop=-1;spacingLeft=3;spacingRight=3;rotatable=0;labelPosition=right;points=[];portConstraint=eastwest;strokeColor=inherit;" parent="WmNGhEGXS-RCsKmBJ5Ct-23" vertex="1">
          <mxGeometry y="80" width="420" height="8" as="geometry" />
        </mxCell>
        <mxCell id="WmNGhEGXS-RCsKmBJ5Ct-26" value="+ createItem(string name, int itemID, double itemPrice) : void&lt;div&gt;+ updateItem(string name, int itemID, double itemPrice) : void&lt;br&gt;&lt;div&gt;+ deleteItem(string name, int itemID, double itemPrice) : void&lt;/div&gt;&lt;/div&gt;" style="text;strokeColor=none;fillColor=none;align=left;verticalAlign=top;spacingLeft=4;spacingRight=4;overflow=hidden;rotatable=0;points=[[0,0.5],[1,0.5]];portConstraint=eastwest;whiteSpace=wrap;html=1;" parent="WmNGhEGXS-RCsKmBJ5Ct-23" vertex="1">
          <mxGeometry y="88" width="420" height="92" as="geometry" />
        </mxCell>
        <mxCell id="WmNGhEGXS-RCsKmBJ5Ct-27" value="Reservation" style="swimlane;fontStyle=1;align=center;verticalAlign=top;childLayout=stackLayout;horizontal=1;startSize=26;horizontalStack=0;resizeParent=1;resizeParentMax=0;resizeLast=0;collapsible=1;marginBottom=0;whiteSpace=wrap;html=1;" parent="1" vertex="1">
          <mxGeometry x="860" y="10" width="180" height="160" as="geometry" />
        </mxCell>
        <mxCell id="WmNGhEGXS-RCsKmBJ5Ct-28" value="+ reservationID : int&lt;div&gt;+ reservationCapacity: int&lt;/div&gt;&lt;div&gt;+ time : time&lt;/div&gt;&lt;div&gt;+ date : date&lt;/div&gt;&lt;div&gt;+ tableID&lt;/div&gt;" style="text;strokeColor=none;fillColor=none;align=left;verticalAlign=top;spacingLeft=4;spacingRight=4;overflow=hidden;rotatable=0;points=[[0,0.5],[1,0.5]];portConstraint=eastwest;whiteSpace=wrap;html=1;" parent="WmNGhEGXS-RCsKmBJ5Ct-27" vertex="1">
          <mxGeometry y="26" width="180" height="84" as="geometry" />
        </mxCell>
        <mxCell id="WmNGhEGXS-RCsKmBJ5Ct-29" value="" style="line;strokeWidth=1;fillColor=none;align=left;verticalAlign=middle;spacingTop=-1;spacingLeft=3;spacingRight=3;rotatable=0;labelPosition=right;points=[];portConstraint=eastwest;strokeColor=inherit;" parent="WmNGhEGXS-RCsKmBJ5Ct-27" vertex="1">
          <mxGeometry y="110" width="180" height="8" as="geometry" />
        </mxCell>
        <mxCell id="WmNGhEGXS-RCsKmBJ5Ct-30" value="+ bookingConfirmation(int) : bool&lt;div&gt;&lt;br&gt;&lt;/div&gt;" style="text;strokeColor=none;fillColor=none;align=left;verticalAlign=top;spacingLeft=4;spacingRight=4;overflow=hidden;rotatable=0;points=[[0,0.5],[1,0.5]];portConstraint=eastwest;whiteSpace=wrap;html=1;" parent="WmNGhEGXS-RCsKmBJ5Ct-27" vertex="1">
          <mxGeometry y="118" width="180" height="42" as="geometry" />
        </mxCell>
        <mxCell id="WmNGhEGXS-RCsKmBJ5Ct-31" value="Payment" style="swimlane;fontStyle=1;align=center;verticalAlign=top;childLayout=stackLayout;horizontal=1;startSize=26;horizontalStack=0;resizeParent=1;resizeParentMax=0;resizeLast=0;collapsible=1;marginBottom=0;whiteSpace=wrap;html=1;" parent="1" vertex="1">
          <mxGeometry x="670" y="850" width="170" height="150" as="geometry" />
        </mxCell>
        <mxCell id="WmNGhEGXS-RCsKmBJ5Ct-32" value="- paymentID : int" style="text;strokeColor=none;fillColor=none;align=left;verticalAlign=top;spacingLeft=4;spacingRight=4;overflow=hidden;rotatable=0;points=[[0,0.5],[1,0.5]];portConstraint=eastwest;whiteSpace=wrap;html=1;" parent="WmNGhEGXS-RCsKmBJ5Ct-31" vertex="1">
          <mxGeometry y="26" width="170" height="44" as="geometry" />
        </mxCell>
        <mxCell id="WmNGhEGXS-RCsKmBJ5Ct-33" value="" style="line;strokeWidth=1;fillColor=none;align=left;verticalAlign=middle;spacingTop=-1;spacingLeft=3;spacingRight=3;rotatable=0;labelPosition=right;points=[];portConstraint=eastwest;strokeColor=inherit;" parent="WmNGhEGXS-RCsKmBJ5Ct-31" vertex="1">
          <mxGeometry y="70" width="170" height="10" as="geometry" />
        </mxCell>
        <mxCell id="WmNGhEGXS-RCsKmBJ5Ct-34" value="+ printBill(int tableID) : bool&lt;div&gt;&lt;br&gt;&lt;/div&gt;" style="text;strokeColor=none;fillColor=none;align=left;verticalAlign=top;spacingLeft=4;spacingRight=4;overflow=hidden;rotatable=0;points=[[0,0.5],[1,0.5]];portConstraint=eastwest;whiteSpace=wrap;html=1;" parent="WmNGhEGXS-RCsKmBJ5Ct-31" vertex="1">
          <mxGeometry y="80" width="170" height="70" as="geometry" />
        </mxCell>
        <mxCell id="MxFE6rUWUZ161nPGLE2J-18" value="" style="endArrow=none;html=1;rounded=0;exitX=0.5;exitY=0;exitDx=0;exitDy=0;entryX=0.501;entryY=1.004;entryDx=0;entryDy=0;entryPerimeter=0;" parent="1" source="WmNGhEGXS-RCsKmBJ5Ct-23" target="WmNGhEGXS-RCsKmBJ5Ct-22" edge="1">
          <mxGeometry width="50" height="50" relative="1" as="geometry">
            <mxPoint x="110" y="500" as="sourcePoint" />
            <mxPoint x="160" y="450" as="targetPoint" />
            <Array as="points">
              <mxPoint x="240" y="800" />
              <mxPoint x="163" y="800" />
            </Array>
          </mxGeometry>
        </mxCell>
        <mxCell id="eUGVVS1-a_z8-Ajn7vOz-7" value="Food Item" style="swimlane;fontStyle=1;align=center;verticalAlign=top;childLayout=stackLayout;horizontal=1;startSize=26;horizontalStack=0;resizeParent=1;resizeParentMax=0;resizeLast=0;collapsible=1;marginBottom=0;whiteSpace=wrap;html=1;" parent="1" vertex="1">
          <mxGeometry x="40" y="1025" width="170" height="150" as="geometry" />
        </mxCell>
        <mxCell id="eUGVVS1-a_z8-Ajn7vOz-8" value="# category : string&lt;div&gt;# spiceLevel : string&lt;/div&gt;" style="text;strokeColor=none;fillColor=none;align=left;verticalAlign=top;spacingLeft=4;spacingRight=4;overflow=hidden;rotatable=0;points=[[0,0.5],[1,0.5]];portConstraint=eastwest;whiteSpace=wrap;html=1;" parent="eUGVVS1-a_z8-Ajn7vOz-7" vertex="1">
          <mxGeometry y="26" width="170" height="44" as="geometry" />
        </mxCell>
        <mxCell id="eUGVVS1-a_z8-Ajn7vOz-9" value="" style="line;strokeWidth=1;fillColor=none;align=left;verticalAlign=middle;spacingTop=-1;spacingLeft=3;spacingRight=3;rotatable=0;labelPosition=right;points=[];portConstraint=eastwest;strokeColor=inherit;" parent="eUGVVS1-a_z8-Ajn7vOz-7" vertex="1">
          <mxGeometry y="70" width="170" height="10" as="geometry" />
        </mxCell>
        <mxCell id="eUGVVS1-a_z8-Ajn7vOz-10" value="+ getDescription() : void&lt;div&gt;&lt;br&gt;&lt;/div&gt;" style="text;strokeColor=none;fillColor=none;align=left;verticalAlign=top;spacingLeft=4;spacingRight=4;overflow=hidden;rotatable=0;points=[[0,0.5],[1,0.5]];portConstraint=eastwest;whiteSpace=wrap;html=1;" parent="eUGVVS1-a_z8-Ajn7vOz-7" vertex="1">
          <mxGeometry y="80" width="170" height="70" as="geometry" />
        </mxCell>
        <mxCell id="eUGVVS1-a_z8-Ajn7vOz-13" value="1" style="text;html=1;align=center;verticalAlign=middle;whiteSpace=wrap;rounded=0;" parent="1" vertex="1">
          <mxGeometry x="470" y="430" width="30" height="20" as="geometry" />
        </mxCell>
        <mxCell id="eUGVVS1-a_z8-Ajn7vOz-14" value="0...*" style="text;html=1;align=center;verticalAlign=middle;whiteSpace=wrap;rounded=0;" parent="1" vertex="1">
          <mxGeometry x="130" y="575" width="30" height="20" as="geometry" />
        </mxCell>
        <mxCell id="4H6gQ25nLs_Ima2g3q4t-9" style="edgeStyle=orthogonalEdgeStyle;rounded=0;orthogonalLoop=1;jettySize=auto;html=1;entryX=0.5;entryY=1;entryDx=0;entryDy=0;" parent="1" source="eUGVVS1-a_z8-Ajn7vOz-15" target="WmNGhEGXS-RCsKmBJ5Ct-23" edge="1">
          <mxGeometry relative="1" as="geometry" />
        </mxCell>
        <mxCell id="eUGVVS1-a_z8-Ajn7vOz-15" value="Drink Item" style="swimlane;fontStyle=1;align=center;verticalAlign=top;childLayout=stackLayout;horizontal=1;startSize=26;horizontalStack=0;resizeParent=1;resizeParentMax=0;resizeLast=0;collapsible=1;marginBottom=0;whiteSpace=wrap;html=1;" parent="1" vertex="1">
          <mxGeometry x="420" y="1060" width="170" height="150" as="geometry" />
        </mxCell>
        <mxCell id="eUGVVS1-a_z8-Ajn7vOz-16" value="# typeOfDrink: string" style="text;strokeColor=none;fillColor=none;align=left;verticalAlign=top;spacingLeft=4;spacingRight=4;overflow=hidden;rotatable=0;points=[[0,0.5],[1,0.5]];portConstraint=eastwest;whiteSpace=wrap;html=1;" parent="eUGVVS1-a_z8-Ajn7vOz-15" vertex="1">
          <mxGeometry y="26" width="170" height="44" as="geometry" />
        </mxCell>
        <mxCell id="eUGVVS1-a_z8-Ajn7vOz-17" value="" style="line;strokeWidth=1;fillColor=none;align=left;verticalAlign=middle;spacingTop=-1;spacingLeft=3;spacingRight=3;rotatable=0;labelPosition=right;points=[];portConstraint=eastwest;strokeColor=inherit;" parent="eUGVVS1-a_z8-Ajn7vOz-15" vertex="1">
          <mxGeometry y="70" width="170" height="10" as="geometry" />
        </mxCell>
        <mxCell id="eUGVVS1-a_z8-Ajn7vOz-18" value="+ getDescription() : void&lt;div&gt;&lt;br&gt;&lt;/div&gt;" style="text;strokeColor=none;fillColor=none;align=left;verticalAlign=top;spacingLeft=4;spacingRight=4;overflow=hidden;rotatable=0;points=[[0,0.5],[1,0.5]];portConstraint=eastwest;whiteSpace=wrap;html=1;" parent="eUGVVS1-a_z8-Ajn7vOz-15" vertex="1">
          <mxGeometry y="80" width="170" height="70" as="geometry" />
        </mxCell>
        <mxCell id="eUGVVS1-a_z8-Ajn7vOz-19" value="Non Vegan" style="swimlane;fontStyle=1;align=center;verticalAlign=top;childLayout=stackLayout;horizontal=1;startSize=26;horizontalStack=0;resizeParent=1;resizeParentMax=0;resizeLast=0;collapsible=1;marginBottom=0;whiteSpace=wrap;html=1;" parent="1" vertex="1">
          <mxGeometry x="40" y="1420" width="170" height="150" as="geometry" />
        </mxCell>
        <mxCell id="eUGVVS1-a_z8-Ajn7vOz-20" value="&amp;nbsp;&amp;nbsp;" style="text;strokeColor=none;fillColor=none;align=left;verticalAlign=top;spacingLeft=4;spacingRight=4;overflow=hidden;rotatable=0;points=[[0,0.5],[1,0.5]];portConstraint=eastwest;whiteSpace=wrap;html=1;" parent="eUGVVS1-a_z8-Ajn7vOz-19" vertex="1">
          <mxGeometry y="26" width="170" height="44" as="geometry" />
        </mxCell>
        <mxCell id="eUGVVS1-a_z8-Ajn7vOz-21" value="" style="line;strokeWidth=1;fillColor=none;align=left;verticalAlign=middle;spacingTop=-1;spacingLeft=3;spacingRight=3;rotatable=0;labelPosition=right;points=[];portConstraint=eastwest;strokeColor=inherit;" parent="eUGVVS1-a_z8-Ajn7vOz-19" vertex="1">
          <mxGeometry y="70" width="170" height="10" as="geometry" />
        </mxCell>
        <mxCell id="eUGVVS1-a_z8-Ajn7vOz-22" value="+ getDescription(): void" style="text;strokeColor=none;fillColor=none;align=left;verticalAlign=top;spacingLeft=4;spacingRight=4;overflow=hidden;rotatable=0;points=[[0,0.5],[1,0.5]];portConstraint=eastwest;whiteSpace=wrap;html=1;" parent="eUGVVS1-a_z8-Ajn7vOz-19" vertex="1">
          <mxGeometry y="80" width="170" height="70" as="geometry" />
        </mxCell>
        <mxCell id="eUGVVS1-a_z8-Ajn7vOz-23" value="" style="html=1;verticalAlign=bottom;endArrow=block;curved=0;rounded=0;exitX=0.5;exitY=0;exitDx=0;exitDy=0;" parent="1" source="eUGVVS1-a_z8-Ajn7vOz-19" target="eUGVVS1-a_z8-Ajn7vOz-7" edge="1">
          <mxGeometry width="80" relative="1" as="geometry">
            <mxPoint x="250" y="1065" as="sourcePoint" />
            <mxPoint x="180" y="1085" as="targetPoint" />
            <Array as="points" />
          </mxGeometry>
        </mxCell>
        <mxCell id="eUGVVS1-a_z8-Ajn7vOz-27" value="Non Alcoholic Drink" style="swimlane;fontStyle=1;align=center;verticalAlign=top;childLayout=stackLayout;horizontal=1;startSize=26;horizontalStack=0;resizeParent=1;resizeParentMax=0;resizeLast=0;collapsible=1;marginBottom=0;whiteSpace=wrap;html=1;" parent="1" vertex="1">
          <mxGeometry x="590" y="1246" width="170" height="150" as="geometry" />
        </mxCell>
        <mxCell id="eUGVVS1-a_z8-Ajn7vOz-28" value="- materialList : string" style="text;strokeColor=none;fillColor=none;align=left;verticalAlign=top;spacingLeft=4;spacingRight=4;overflow=hidden;rotatable=0;points=[[0,0.5],[1,0.5]];portConstraint=eastwest;whiteSpace=wrap;html=1;" parent="eUGVVS1-a_z8-Ajn7vOz-27" vertex="1">
          <mxGeometry y="26" width="170" height="44" as="geometry" />
        </mxCell>
        <mxCell id="eUGVVS1-a_z8-Ajn7vOz-29" value="" style="line;strokeWidth=1;fillColor=none;align=left;verticalAlign=middle;spacingTop=-1;spacingLeft=3;spacingRight=3;rotatable=0;labelPosition=right;points=[];portConstraint=eastwest;strokeColor=inherit;" parent="eUGVVS1-a_z8-Ajn7vOz-27" vertex="1">
          <mxGeometry y="70" width="170" height="10" as="geometry" />
        </mxCell>
        <mxCell id="eUGVVS1-a_z8-Ajn7vOz-30" value="+ getDescription() : void" style="text;strokeColor=none;fillColor=none;align=left;verticalAlign=top;spacingLeft=4;spacingRight=4;overflow=hidden;rotatable=0;points=[[0,0.5],[1,0.5]];portConstraint=eastwest;whiteSpace=wrap;html=1;" parent="eUGVVS1-a_z8-Ajn7vOz-27" vertex="1">
          <mxGeometry y="80" width="170" height="70" as="geometry" />
        </mxCell>
        <mxCell id="eUGVVS1-a_z8-Ajn7vOz-31" value="" style="html=1;verticalAlign=bottom;endArrow=block;curved=0;rounded=0;exitX=0.5;exitY=0;exitDx=0;exitDy=0;entryX=0.499;entryY=0.997;entryDx=0;entryDy=0;entryPerimeter=0;" parent="1" source="eUGVVS1-a_z8-Ajn7vOz-27" target="eUGVVS1-a_z8-Ajn7vOz-18" edge="1">
          <mxGeometry width="80" relative="1" as="geometry">
            <mxPoint x="364.65999999999997" y="1155" as="sourcePoint" />
            <mxPoint x="360" y="1025" as="targetPoint" />
            <Array as="points">
              <mxPoint x="505" y="1246" />
            </Array>
          </mxGeometry>
        </mxCell>
        <mxCell id="5piZ8aFryOxup_cjm5pH-1" value="0...*" style="text;html=1;align=center;verticalAlign=middle;whiteSpace=wrap;rounded=0;" parent="1" vertex="1">
          <mxGeometry x="240" y="800" width="30" height="20" as="geometry" />
        </mxCell>
        <mxCell id="5piZ8aFryOxup_cjm5pH-2" value="0...*" style="text;html=1;align=center;verticalAlign=middle;whiteSpace=wrap;rounded=0;" parent="1" vertex="1">
          <mxGeometry x="130" y="765" width="30" height="20" as="geometry" />
        </mxCell>
        <mxCell id="5piZ8aFryOxup_cjm5pH-4" value="1" style="text;html=1;align=center;verticalAlign=middle;whiteSpace=wrap;rounded=0;" parent="1" vertex="1">
          <mxGeometry x="610" y="542" width="30" height="20" as="geometry" />
        </mxCell>
        <mxCell id="5piZ8aFryOxup_cjm5pH-6" value="" style="endArrow=diamondThin;endFill=1;endSize=24;html=1;rounded=0;exitX=0.963;exitY=0.5;exitDx=0;exitDy=0;exitPerimeter=0;entryX=-0.005;entryY=-0.049;entryDx=0;entryDy=0;entryPerimeter=0;" parent="1" source="WmNGhEGXS-RCsKmBJ5Ct-21" target="WmNGhEGXS-RCsKmBJ5Ct-18" edge="1">
          <mxGeometry width="160" relative="1" as="geometry">
            <mxPoint x="230" y="403.5" as="sourcePoint" />
            <mxPoint x="390" y="403.5" as="targetPoint" />
            <Array as="points">
              <mxPoint x="410" y="670" />
              <mxPoint x="410" y="415" />
            </Array>
          </mxGeometry>
        </mxCell>
        <mxCell id="5piZ8aFryOxup_cjm5pH-11" style="edgeStyle=orthogonalEdgeStyle;rounded=0;orthogonalLoop=1;jettySize=auto;html=1;" parent="1" source="eUGVVS1-a_z8-Ajn7vOz-7" target="WmNGhEGXS-RCsKmBJ5Ct-23" edge="1">
          <mxGeometry relative="1" as="geometry">
            <mxPoint x="334.9999999999999" y="1075" as="targetPoint" />
            <mxPoint x="219.16" y="1100" as="sourcePoint" />
            <Array as="points">
              <mxPoint x="240" y="1070" />
            </Array>
          </mxGeometry>
        </mxCell>
        <mxCell id="4H6gQ25nLs_Ima2g3q4t-8" value="1" style="text;html=1;align=center;verticalAlign=middle;whiteSpace=wrap;rounded=0;" parent="1" vertex="1">
          <mxGeometry x="610" y="272" width="30" height="20" as="geometry" />
        </mxCell>
        <mxCell id="4H6gQ25nLs_Ima2g3q4t-12" value="1" style="text;html=1;align=center;verticalAlign=middle;whiteSpace=wrap;rounded=0;" parent="1" vertex="1">
          <mxGeometry x="750" y="830" width="30" height="20" as="geometry" />
        </mxCell>
        <mxCell id="G7HK1DQFa3EO9lrrMs0Z-4" value="Alcoholic Drink" style="swimlane;fontStyle=1;align=center;verticalAlign=top;childLayout=stackLayout;horizontal=1;startSize=26;horizontalStack=0;resizeParent=1;resizeParentMax=0;resizeLast=0;collapsible=1;marginBottom=0;whiteSpace=wrap;html=1;" parent="1" vertex="1">
          <mxGeometry x="690" y="1064" width="170" height="146" as="geometry" />
        </mxCell>
        <mxCell id="G7HK1DQFa3EO9lrrMs0Z-5" value="&lt;div&gt;- alcoholicContent : float&lt;/div&gt;&lt;div&gt;- alcoholList : vector&lt;/div&gt;" style="text;strokeColor=none;fillColor=none;align=left;verticalAlign=top;spacingLeft=4;spacingRight=4;overflow=hidden;rotatable=0;points=[[0,0.5],[1,0.5]];portConstraint=eastwest;whiteSpace=wrap;html=1;" parent="G7HK1DQFa3EO9lrrMs0Z-4" vertex="1">
          <mxGeometry y="26" width="170" height="40" as="geometry" />
        </mxCell>
        <mxCell id="G7HK1DQFa3EO9lrrMs0Z-6" value="" style="line;strokeWidth=1;fillColor=none;align=left;verticalAlign=middle;spacingTop=-1;spacingLeft=3;spacingRight=3;rotatable=0;labelPosition=right;points=[];portConstraint=eastwest;strokeColor=inherit;" parent="G7HK1DQFa3EO9lrrMs0Z-4" vertex="1">
          <mxGeometry y="66" width="170" height="10" as="geometry" />
        </mxCell>
        <mxCell id="G7HK1DQFa3EO9lrrMs0Z-7" value="+ getDescription() : void" style="text;strokeColor=none;fillColor=none;align=left;verticalAlign=top;spacingLeft=4;spacingRight=4;overflow=hidden;rotatable=0;points=[[0,0.5],[1,0.5]];portConstraint=eastwest;whiteSpace=wrap;html=1;" parent="G7HK1DQFa3EO9lrrMs0Z-4" vertex="1">
          <mxGeometry y="76" width="170" height="70" as="geometry" />
        </mxCell>
        <mxCell id="G7HK1DQFa3EO9lrrMs0Z-8" value="" style="html=1;verticalAlign=bottom;endArrow=block;curved=0;rounded=0;" parent="1" source="G7HK1DQFa3EO9lrrMs0Z-4" target="eUGVVS1-a_z8-Ajn7vOz-15" edge="1">
          <mxGeometry width="80" relative="1" as="geometry">
            <mxPoint x="375" y="1165" as="sourcePoint" />
            <mxPoint x="375" y="1035" as="targetPoint" />
          </mxGeometry>
        </mxCell>
        <mxCell id="G7HK1DQFa3EO9lrrMs0Z-9" value="Vegan" style="swimlane;fontStyle=1;align=center;verticalAlign=top;childLayout=stackLayout;horizontal=1;startSize=26;horizontalStack=0;resizeParent=1;resizeParentMax=0;resizeLast=0;collapsible=1;marginBottom=0;whiteSpace=wrap;html=1;" parent="1" vertex="1">
          <mxGeometry x="390" y="1410" width="170" height="150" as="geometry" />
        </mxCell>
        <mxCell id="G7HK1DQFa3EO9lrrMs0Z-10" value="&amp;nbsp;&amp;nbsp;" style="text;strokeColor=none;fillColor=none;align=left;verticalAlign=top;spacingLeft=4;spacingRight=4;overflow=hidden;rotatable=0;points=[[0,0.5],[1,0.5]];portConstraint=eastwest;whiteSpace=wrap;html=1;" parent="G7HK1DQFa3EO9lrrMs0Z-9" vertex="1">
          <mxGeometry y="26" width="170" height="44" as="geometry" />
        </mxCell>
        <mxCell id="G7HK1DQFa3EO9lrrMs0Z-11" value="" style="line;strokeWidth=1;fillColor=none;align=left;verticalAlign=middle;spacingTop=-1;spacingLeft=3;spacingRight=3;rotatable=0;labelPosition=right;points=[];portConstraint=eastwest;strokeColor=inherit;" parent="G7HK1DQFa3EO9lrrMs0Z-9" vertex="1">
          <mxGeometry y="70" width="170" height="10" as="geometry" />
        </mxCell>
        <mxCell id="G7HK1DQFa3EO9lrrMs0Z-12" value="+ getDescription(): void" style="text;strokeColor=none;fillColor=none;align=left;verticalAlign=top;spacingLeft=4;spacingRight=4;overflow=hidden;rotatable=0;points=[[0,0.5],[1,0.5]];portConstraint=eastwest;whiteSpace=wrap;html=1;" parent="G7HK1DQFa3EO9lrrMs0Z-9" vertex="1">
          <mxGeometry y="80" width="170" height="70" as="geometry" />
        </mxCell>
        <mxCell id="G7HK1DQFa3EO9lrrMs0Z-13" value="" style="html=1;verticalAlign=bottom;endArrow=block;curved=0;rounded=0;exitX=0.419;exitY=0.028;exitDx=0;exitDy=0;exitPerimeter=0;" parent="1" source="G7HK1DQFa3EO9lrrMs0Z-9" target="eUGVVS1-a_z8-Ajn7vOz-7" edge="1">
          <mxGeometry width="80" relative="1" as="geometry">
            <mxPoint x="95" y="1470" as="sourcePoint" />
            <mxPoint x="160" y="1040" as="targetPoint" />
            <Array as="points">
              <mxPoint x="460" y="1330" />
              <mxPoint x="125" y="1330" />
              <mxPoint x="125" y="1180" />
            </Array>
          </mxGeometry>
        </mxCell>
        <mxCell id="G7HK1DQFa3EO9lrrMs0Z-21" value="Cash Payment" style="swimlane;fontStyle=1;align=center;verticalAlign=top;childLayout=stackLayout;horizontal=1;startSize=26;horizontalStack=0;resizeParent=1;resizeParentMax=0;resizeLast=0;collapsible=1;marginBottom=0;whiteSpace=wrap;html=1;" parent="1" vertex="1">
          <mxGeometry x="1050" y="708" width="170" height="150" as="geometry" />
        </mxCell>
        <mxCell id="G7HK1DQFa3EO9lrrMs0Z-22" value="_" style="text;strokeColor=none;fillColor=none;align=left;verticalAlign=top;spacingLeft=4;spacingRight=4;overflow=hidden;rotatable=0;points=[[0,0.5],[1,0.5]];portConstraint=eastwest;whiteSpace=wrap;html=1;" parent="G7HK1DQFa3EO9lrrMs0Z-21" vertex="1">
          <mxGeometry y="26" width="170" height="44" as="geometry" />
        </mxCell>
        <mxCell id="G7HK1DQFa3EO9lrrMs0Z-23" value="" style="line;strokeWidth=1;fillColor=none;align=left;verticalAlign=middle;spacingTop=-1;spacingLeft=3;spacingRight=3;rotatable=0;labelPosition=right;points=[];portConstraint=eastwest;strokeColor=inherit;" parent="G7HK1DQFa3EO9lrrMs0Z-21" vertex="1">
          <mxGeometry y="70" width="170" height="10" as="geometry" />
        </mxCell>
        <mxCell id="G7HK1DQFa3EO9lrrMs0Z-24" value="+ printBill(int tableID) : bool&lt;div class=&quot;custom-cursor-default-hover&quot;&gt;&lt;br&gt;&lt;/div&gt;" style="text;strokeColor=none;fillColor=none;align=left;verticalAlign=top;spacingLeft=4;spacingRight=4;overflow=hidden;rotatable=0;points=[[0,0.5],[1,0.5]];portConstraint=eastwest;whiteSpace=wrap;html=1;" parent="G7HK1DQFa3EO9lrrMs0Z-21" vertex="1">
          <mxGeometry y="80" width="170" height="70" as="geometry" />
        </mxCell>
        <mxCell id="G7HK1DQFa3EO9lrrMs0Z-25" value="Card Payment" style="swimlane;fontStyle=1;align=center;verticalAlign=top;childLayout=stackLayout;horizontal=1;startSize=26;horizontalStack=0;resizeParent=1;resizeParentMax=0;resizeLast=0;collapsible=1;marginBottom=0;whiteSpace=wrap;html=1;" parent="1" vertex="1">
          <mxGeometry x="1050" y="890" width="170" height="150" as="geometry" />
        </mxCell>
        <mxCell id="G7HK1DQFa3EO9lrrMs0Z-26" value="-" style="text;strokeColor=none;fillColor=none;align=left;verticalAlign=top;spacingLeft=4;spacingRight=4;overflow=hidden;rotatable=0;points=[[0,0.5],[1,0.5]];portConstraint=eastwest;whiteSpace=wrap;html=1;" parent="G7HK1DQFa3EO9lrrMs0Z-25" vertex="1">
          <mxGeometry y="26" width="170" height="44" as="geometry" />
        </mxCell>
        <mxCell id="G7HK1DQFa3EO9lrrMs0Z-27" value="" style="line;strokeWidth=1;fillColor=none;align=left;verticalAlign=middle;spacingTop=-1;spacingLeft=3;spacingRight=3;rotatable=0;labelPosition=right;points=[];portConstraint=eastwest;strokeColor=inherit;" parent="G7HK1DQFa3EO9lrrMs0Z-25" vertex="1">
          <mxGeometry y="70" width="170" height="10" as="geometry" />
        </mxCell>
        <mxCell id="G7HK1DQFa3EO9lrrMs0Z-28" value="+ printBill(int tableID) : bool&lt;div class=&quot;custom-cursor-default-hover&quot;&gt;&lt;br&gt;&lt;/div&gt;" style="text;strokeColor=none;fillColor=none;align=left;verticalAlign=top;spacingLeft=4;spacingRight=4;overflow=hidden;rotatable=0;points=[[0,0.5],[1,0.5]];portConstraint=eastwest;whiteSpace=wrap;html=1;" parent="G7HK1DQFa3EO9lrrMs0Z-25" vertex="1">
          <mxGeometry y="80" width="170" height="70" as="geometry" />
        </mxCell>
        <mxCell id="G7HK1DQFa3EO9lrrMs0Z-33" value="" style="endArrow=block;endSize=16;endFill=0;html=1;rounded=0;" parent="1" source="G7HK1DQFa3EO9lrrMs0Z-21" target="WmNGhEGXS-RCsKmBJ5Ct-31" edge="1">
          <mxGeometry width="160" relative="1" as="geometry">
            <mxPoint x="840" y="532.13" as="sourcePoint" />
            <mxPoint x="1000" y="532.13" as="targetPoint" />
            <Array as="points">
              <mxPoint x="950" y="780" />
              <mxPoint x="950" y="920" />
            </Array>
          </mxGeometry>
        </mxCell>
        <mxCell id="u1XQuzP5hhlnOspZoKdA-5" value="Subclass" style="edgeLabel;html=1;align=center;verticalAlign=middle;resizable=0;points=[];" parent="G7HK1DQFa3EO9lrrMs0Z-33" vertex="1" connectable="0">
          <mxGeometry x="-0.6253" y="-4" relative="1" as="geometry">
            <mxPoint x="10" y="2" as="offset" />
          </mxGeometry>
        </mxCell>
        <mxCell id="G7HK1DQFa3EO9lrrMs0Z-34" value="" style="endArrow=block;endSize=16;endFill=0;html=1;rounded=0;" parent="1" source="G7HK1DQFa3EO9lrrMs0Z-25" target="WmNGhEGXS-RCsKmBJ5Ct-31" edge="1">
          <mxGeometry width="160" relative="1" as="geometry">
            <mxPoint x="1060" y="644" as="sourcePoint" />
            <mxPoint x="850" y="709" as="targetPoint" />
            <Array as="points">
              <mxPoint x="950" y="960" />
              <mxPoint x="950" y="920" />
            </Array>
          </mxGeometry>
        </mxCell>
        <mxCell id="u1XQuzP5hhlnOspZoKdA-3" value="Abstract Class" style="edgeLabel;html=1;align=center;verticalAlign=middle;resizable=0;points=[];" parent="G7HK1DQFa3EO9lrrMs0Z-34" vertex="1" connectable="0">
          <mxGeometry x="0.5843" y="-1" relative="1" as="geometry">
            <mxPoint x="6" as="offset" />
          </mxGeometry>
        </mxCell>
        <mxCell id="u1XQuzP5hhlnOspZoKdA-6" value="Subclass" style="edgeLabel;html=1;align=center;verticalAlign=middle;resizable=0;points=[];" parent="G7HK1DQFa3EO9lrrMs0Z-34" vertex="1" connectable="0">
          <mxGeometry x="-0.5852" y="3" relative="1" as="geometry">
            <mxPoint y="-4" as="offset" />
          </mxGeometry>
        </mxCell>
        <mxCell id="u1XQuzP5hhlnOspZoKdA-1" value="" style="endArrow=diamondThin;endFill=1;endSize=24;html=1;rounded=0;" parent="1" source="WmNGhEGXS-RCsKmBJ5Ct-31" target="WmNGhEGXS-RCsKmBJ5Ct-15" edge="1">
          <mxGeometry width="160" relative="1" as="geometry">
            <mxPoint x="410" y="522.5" as="sourcePoint" />
            <mxPoint x="611" y="523.5" as="targetPoint" />
            <Array as="points">
              <mxPoint x="755" y="690" />
              <mxPoint x="610" y="690" />
            </Array>
          </mxGeometry>
        </mxCell>
        <mxCell id="NkOzeD29csPkeT-RIOyP-2" value="1" style="text;html=1;align=center;verticalAlign=middle;whiteSpace=wrap;rounded=0;" parent="1" vertex="1">
          <mxGeometry x="220" y="130" width="30" height="20" as="geometry" />
        </mxCell>
        <mxCell id="NkOzeD29csPkeT-RIOyP-4" value="" style="endArrow=none;html=1;rounded=0;" parent="1" source="WmNGhEGXS-RCsKmBJ5Ct-15" target="WmNGhEGXS-RCsKmBJ5Ct-5" edge="1">
          <mxGeometry width="50" height="50" relative="1" as="geometry">
            <mxPoint x="630" y="340" as="sourcePoint" />
            <mxPoint x="680" y="290" as="targetPoint" />
            <Array as="points">
              <mxPoint x="610" y="125" />
            </Array>
          </mxGeometry>
        </mxCell>
        <mxCell id="py9IbWNQExx5Lp6S8MEo-1" value="" style="endArrow=none;html=1;rounded=0;" parent="1" source="WmNGhEGXS-RCsKmBJ5Ct-27" target="WmNGhEGXS-RCsKmBJ5Ct-5" edge="1">
          <mxGeometry width="50" height="50" relative="1" as="geometry">
            <mxPoint x="810" y="200" as="sourcePoint" />
            <mxPoint x="280" y="135" as="targetPoint" />
          </mxGeometry>
        </mxCell>
        <mxCell id="py9IbWNQExx5Lp6S8MEo-2" value="1" style="text;html=1;align=center;verticalAlign=middle;whiteSpace=wrap;rounded=0;" parent="1" vertex="1">
          <mxGeometry x="220" y="90" width="30" height="20" as="geometry" />
        </mxCell>
        <mxCell id="py9IbWNQExx5Lp6S8MEo-3" value="1" style="text;html=1;align=center;verticalAlign=middle;whiteSpace=wrap;rounded=0;" parent="1" vertex="1">
          <mxGeometry x="830" y="100" width="30" height="20" as="geometry" />
        </mxCell>
        <mxCell id="py9IbWNQExx5Lp6S8MEo-4" value="" style="endArrow=none;html=1;rounded=0;" parent="1" source="WmNGhEGXS-RCsKmBJ5Ct-27" target="WmNGhEGXS-RCsKmBJ5Ct-15" edge="1">
          <mxGeometry width="50" height="50" relative="1" as="geometry">
            <mxPoint x="870" y="135" as="sourcePoint" />
            <mxPoint x="280" y="135" as="targetPoint" />
            <Array as="points">
              <mxPoint x="950" y="420" />
            </Array>
          </mxGeometry>
        </mxCell>
        <mxCell id="py9IbWNQExx5Lp6S8MEo-5" value="1" style="text;html=1;align=center;verticalAlign=middle;whiteSpace=wrap;rounded=0;" parent="1" vertex="1">
          <mxGeometry x="920" y="170" width="30" height="20" as="geometry" />
        </mxCell>
        <mxCell id="py9IbWNQExx5Lp6S8MEo-6" value="1" style="text;html=1;align=center;verticalAlign=middle;whiteSpace=wrap;rounded=0;" parent="1" vertex="1">
          <mxGeometry x="720" y="420" width="30" height="20" as="geometry" />
        </mxCell>
        <mxCell id="8_fpDGbRu9A21cT8znPC-4" value="Takeaway" style="swimlane;fontStyle=1;align=center;verticalAlign=top;childLayout=stackLayout;horizontal=1;startSize=26;horizontalStack=0;resizeParent=1;resizeParentMax=0;resizeLast=0;collapsible=1;marginBottom=0;whiteSpace=wrap;html=1;" vertex="1" parent="1">
          <mxGeometry x="52.5" y="320" width="220" height="230" as="geometry" />
        </mxCell>
        <mxCell id="8_fpDGbRu9A21cT8znPC-5" value="&lt;div class=&quot;custom-cursor-default-hover&quot;&gt;+ orderList: unordered_map&amp;lt;int, order&amp;gt;&lt;/div&gt;&lt;div class=&quot;custom-cursor-default-hover&quot;&gt;+ customerPayment : *payment&lt;/div&gt;&lt;div class=&quot;custom-cursor-default-hover&quot;&gt;&lt;br&gt;&lt;/div&gt;" style="text;strokeColor=none;fillColor=none;align=left;verticalAlign=top;spacingLeft=4;spacingRight=4;overflow=hidden;rotatable=0;points=[[0,0.5],[1,0.5]];portConstraint=eastwest;whiteSpace=wrap;html=1;" vertex="1" parent="8_fpDGbRu9A21cT8znPC-4">
          <mxGeometry y="26" width="220" height="94" as="geometry" />
        </mxCell>
        <mxCell id="8_fpDGbRu9A21cT8znPC-6" value="" style="line;strokeWidth=1;fillColor=none;align=left;verticalAlign=middle;spacingTop=-1;spacingLeft=3;spacingRight=3;rotatable=0;labelPosition=right;points=[];portConstraint=eastwest;strokeColor=inherit;" vertex="1" parent="8_fpDGbRu9A21cT8znPC-4">
          <mxGeometry y="120" width="220" height="8" as="geometry" />
        </mxCell>
        <mxCell id="8_fpDGbRu9A21cT8znPC-7" value="&lt;div class=&quot;custom-cursor-default-hover&quot;&gt;+ placeOrder (): bool&lt;/div&gt;&lt;div class=&quot;custom-cursor-default-hover&quot;&gt;+ payBill() : bool&lt;/div&gt;&lt;div class=&quot;custom-cursor-default-hover&quot;&gt;+ returnTotalAmount(vector menu) : double&amp;nbsp;&lt;/div&gt;&lt;div class=&quot;custom-cursor-default-hover&quot;&gt;+ displayOrder() :: void&lt;/div&gt;&lt;div class=&quot;custom-cursor-default-hover&quot;&gt;&lt;br&gt;&lt;/div&gt;&lt;div class=&quot;custom-cursor-default-hover&quot;&gt;&lt;br&gt;&lt;/div&gt;&lt;div class=&quot;custom-cursor-default-hover&quot;&gt;&lt;br&gt;&lt;/div&gt;" style="text;strokeColor=none;fillColor=none;align=left;verticalAlign=top;spacingLeft=4;spacingRight=4;overflow=hidden;rotatable=0;points=[[0,0.5],[1,0.5]];portConstraint=eastwest;whiteSpace=wrap;html=1;" vertex="1" parent="8_fpDGbRu9A21cT8znPC-4">
          <mxGeometry y="128" width="220" height="102" as="geometry" />
        </mxCell>
        <mxCell id="8_fpDGbRu9A21cT8znPC-8" value="" style="endArrow=none;html=1;rounded=0;" edge="1" parent="1" source="8_fpDGbRu9A21cT8znPC-4" target="WmNGhEGXS-RCsKmBJ5Ct-5">
          <mxGeometry width="50" height="50" relative="1" as="geometry">
            <mxPoint x="870" y="135" as="sourcePoint" />
            <mxPoint x="220" y="135" as="targetPoint" />
            <Array as="points">
              <mxPoint x="160" y="280" />
              <mxPoint x="115" y="280" />
            </Array>
          </mxGeometry>
        </mxCell>
        <mxCell id="8_fpDGbRu9A21cT8znPC-9" value="1" style="text;html=1;align=center;verticalAlign=middle;whiteSpace=wrap;rounded=0;" vertex="1" parent="1">
          <mxGeometry x="80" y="220" width="30" height="20" as="geometry" />
        </mxCell>
        <mxCell id="8_fpDGbRu9A21cT8znPC-10" value="1" style="text;html=1;align=center;verticalAlign=middle;whiteSpace=wrap;rounded=0;" vertex="1" parent="1">
          <mxGeometry x="170" y="300" width="30" height="20" as="geometry" />
        </mxCell>
        <mxCell id="8_fpDGbRu9A21cT8znPC-11" value="" style="endArrow=diamondThin;endFill=1;endSize=24;html=1;rounded=0;" edge="1" parent="1" source="WmNGhEGXS-RCsKmBJ5Ct-19" target="8_fpDGbRu9A21cT8znPC-4">
          <mxGeometry width="160" relative="1" as="geometry">
            <mxPoint x="295" y="679" as="sourcePoint" />
            <mxPoint x="509" y="425" as="targetPoint" />
          </mxGeometry>
        </mxCell>
        <mxCell id="8_fpDGbRu9A21cT8znPC-12" value="1" style="text;html=1;align=center;verticalAlign=middle;whiteSpace=wrap;rounded=0;" vertex="1" parent="1">
          <mxGeometry x="170" y="550" width="30" height="20" as="geometry" />
        </mxCell>
        <mxCell id="8_fpDGbRu9A21cT8znPC-14" value="" style="endArrow=diamondThin;endFill=1;endSize=24;html=1;rounded=0;" edge="1" parent="1" source="WmNGhEGXS-RCsKmBJ5Ct-31" target="8_fpDGbRu9A21cT8znPC-4">
          <mxGeometry width="160" relative="1" as="geometry">
            <mxPoint x="765" y="660" as="sourcePoint" />
            <mxPoint x="620" y="532" as="targetPoint" />
            <Array as="points">
              <mxPoint x="755" y="720" />
              <mxPoint x="390" y="720" />
              <mxPoint x="390" y="440" />
            </Array>
          </mxGeometry>
        </mxCell>
        <mxCell id="8_fpDGbRu9A21cT8znPC-17" value="1" style="text;html=1;align=center;verticalAlign=middle;whiteSpace=wrap;rounded=0;" vertex="1" parent="1">
          <mxGeometry x="272.5" y="410" width="30" height="20" as="geometry" />
        </mxCell>
      </root>
    </mxGraphModel>
  </diagram>
</mxfile>
